# xmcd
#
# Track frame offsets:
#	183
#	14783
#	29045
#	42245
#	56595
#	68983
#	81233
#	92295
#	104033
#	114845
#	127070
#	137508
#	150195
#	162908
#	173533
#	185658
#	197783
#	208008
#	218670
#	227570
#
# Disc length: 3170 seconds
# Revision: 0
# Processed by: cddbd v1.5.2PL0 Copyright (c) Steve Scherf et al.
# Submitted via: dBpowerAMP V12.0
#
DISCID=140c6014
DTITLE=Various Artist - Mercury Rhythm and Blues: 1946 - 1962 [CD2]
DYEAR=1990
DGENRE=Rhythm and Blues
TTITLE0=Buddy and Ella Johnson - That's How I Feel About You
TTITLE1=Buddy and Ella Johnson - Hittin' On Me
TTITLE2=Buddy and Ella Johnson - Shut Your Big Mouth (Girl)
TTITLE3=Buddy and Ella Johnson - A Pretty Girl (A Cadillac And Some Money)
TTITLE4=Buddy and Ella Johnson - (Gotta Go) Upside Your Head
TTITLE5=Buddy and Ella Johnson - I Don't Want Nobody ( To Have My Love But You)
TTITLE6=Buddy and Ella Johnson - That's What You Gotta Do
TTITLE7=Buddy and Ella Johnson - I Still Love You
TTITLE8=Louis Jordan - Caldonia
TTITLE9=Louis Jordan - Let The Good Times Roll
TTITLE10=Louis Jordan - Big Bess
TTITLE11=Louis Jordan - Cat Scratchin'
TTITLE12=Louis Jordan - Salt Pork, W. Va.
TTITLE13=Louis Jordan - Fire
TTITLE14=Louis Jordan - Ella Mae
TTITLE15=Louis Jordan - Sweet Hunk Of Junk
TTITLE16=Clyde McPhatter - Ta Ta
TTITLE17=Clyde McPhatter - I Never Knew
TTITLE18=Clyde McPhatter - Lover Please
TTITLE19=Clyde McPhatter - Little Bitty Pretty One
EXTD=
EXTT0=
EXTT1=
EXTT2=
EXTT3=
EXTT4=
EXTT5=
EXTT6=
EXTT7=
EXTT8=
EXTT9=
EXTT10=
EXTT11=
EXTT12=
EXTT13=
EXTT14=
EXTT15=
EXTT16=
EXTT17=
EXTT18=
EXTT19=
PLAYORDER=
